<svg width="62" height="62" viewBox="0 0 62 62" fill="none" xmlns="http://www.w3.org/2000/svg">
<path d="M30.5976 61.292C47.4962 61.292 61.1952 47.6779 61.1952 30.884C61.1952 14.0902 47.4962 0.476074 30.5976 0.476074C13.699 0.476074 0 14.0902 0 30.884C0 47.6779 13.699 61.292 30.5976 61.292Z" fill="#00A7B3"/>
<path d="M60.6952 30.884C60.6952 47.3988 47.223 60.792 30.5976 60.792C13.9722 60.792 0.5 47.3988 0.5 30.884C0.5 14.3692 13.9722 0.976074 30.5976 0.976074C47.223 0.976074 60.6952 14.3692 60.6952 30.884Z" stroke="black" stroke-opacity="0.3"/>
<path d="M33.542 21.3882C35.1169 21.3882 36.3936 20.1194 36.3936 18.5542C36.3936 16.989 35.1169 15.7202 33.542 15.7202C31.9671 15.7202 30.6904 16.989 30.6904 18.5542C30.6904 20.1194 31.9671 21.3882 33.542 21.3882Z" stroke="white" stroke-width="1.5" stroke-miterlimit="10" stroke-linecap="round" stroke-linejoin="round"/>
<path d="M20.2335 42.1719C22.8586 42.1719 24.9866 40.0571 24.9866 37.4485C24.9866 34.8398 22.8586 32.7251 20.2335 32.7251C17.6085 32.7251 15.4805 34.8398 15.4805 37.4485C15.4805 40.0571 17.6085 42.1719 20.2335 42.1719Z" stroke="white" stroke-width="1.5" stroke-miterlimit="10" stroke-linecap="round" stroke-linejoin="round"/>
<path d="M39.2462 42.1719C41.8713 42.1719 43.9993 40.0571 43.9993 37.4485C43.9993 34.8398 41.8713 32.7251 39.2462 32.7251C36.6212 32.7251 34.4932 34.8398 34.4932 37.4485C34.4932 40.0571 36.6212 42.1719 39.2462 42.1719Z" stroke="white" stroke-width="1.5" stroke-miterlimit="10" stroke-linecap="round" stroke-linejoin="round"/>
<path d="M29.739 39.3379C28.6869 39.3379 27.8377 38.4939 27.8377 37.4485C27.8377 34.6143 26.266 32.0447 23.731 30.7347C23.186 30.4576 22.8057 29.9286 22.7296 29.3239C22.6409 28.7193 22.8564 28.1147 23.3 27.6865L28.4207 22.8495C28.8517 22.4339 29.4601 22.2575 30.0558 22.3583C30.6516 22.459 31.1585 22.8369 31.4247 23.3786C31.4374 23.3912 32.8824 26.1119 35.43 26.1119C36.4821 26.1119 37.3313 26.9559 37.3313 28.0014C37.3313 29.0468 36.4821 29.8908 35.43 29.8908C32.6415 29.8908 30.6642 28.4044 29.4601 27.0818L27.6222 28.8201C30.1445 30.9489 31.6275 34.0727 31.6275 37.4485C31.6402 38.4939 30.791 39.3379 29.739 39.3379Z" stroke="white" stroke-width="1.5" stroke-miterlimit="10" stroke-linecap="round" stroke-linejoin="round"/>
</svg>
