<svg width="62" height="62" viewBox="0 0 62 62" fill="none" xmlns="http://www.w3.org/2000/svg">
<path d="M30.5976 61.3877C47.4962 61.3877 61.1952 47.7736 61.1952 30.9797C61.1952 14.1859 47.4962 0.571777 30.5976 0.571777C13.699 0.571777 0 14.1859 0 30.9797C0 47.7736 13.699 61.3877 30.5976 61.3877Z" fill="#00A7B3"/>
<path d="M60.6952 30.9797C60.6952 47.4945 47.223 60.8877 30.5976 60.8877C13.9722 60.8877 0.5 47.4945 0.5 30.9797C0.5 14.465 13.9722 1.07178 30.5976 1.07178C47.223 1.07178 60.6952 14.465 60.6952 30.9797Z" stroke="black" stroke-opacity="0.3"/>
<path d="M44.7653 28.4824L38.4327 32.1153V28.7619H19.4014V40.3872H38.4327V36.9779L44.7653 40.5996V28.4824Z" stroke="white" stroke-width="1.4" stroke-miterlimit="10" stroke-linecap="round" stroke-linejoin="round"/>
<path d="M24.2385 28.4824C26.7481 28.4824 28.7826 26.4606 28.7826 23.9666C28.7826 21.4725 26.7481 19.4507 24.2385 19.4507C21.7288 19.4507 19.6943 21.4725 19.6943 23.9666C19.6943 26.4606 21.7288 28.4824 24.2385 28.4824Z" stroke="white" stroke-width="1.4" stroke-miterlimit="10" stroke-linecap="round" stroke-linejoin="round"/>
<path d="M33.3263 28.4824C35.8359 28.4824 37.8704 26.4606 37.8704 23.9666C37.8704 21.4725 35.8359 19.4507 33.3263 19.4507C30.8167 19.4507 28.7822 21.4725 28.7822 23.9666C28.7822 26.4606 30.8167 28.4824 33.3263 28.4824Z" stroke="white" stroke-width="1.4" stroke-miterlimit="10" stroke-linecap="round" stroke-linejoin="round"/>
</svg>
