<svg width="62" height="62" viewBox="0 0 62 62" fill="none" xmlns="http://www.w3.org/2000/svg">
<path d="M30.5975 61.4565C47.4962 61.4565 61.1952 47.8424 61.1952 31.0486C61.1952 14.2547 47.4962 0.640625 30.5975 0.640625C13.6989 0.640625 0 14.2547 0 31.0486C0 47.8424 13.6989 61.4565 30.5975 61.4565Z" fill="#00A7B3"/>
<path d="M60.6952 31.0486C60.6952 47.5634 47.2229 60.9565 30.5975 60.9565C13.9722 60.9565 0.5 47.5634 0.5 31.0486C0.5 14.5338 13.9722 1.14062 30.5975 1.14062C47.2229 1.14062 60.6952 14.5338 60.6952 31.0486Z" stroke="black" stroke-opacity="0.3"/>
<path d="M35.9728 25.5645C35.9728 28.3547 33.6977 30.6157 30.8902 30.6157C28.0827 30.6157 25.8076 28.3547 25.8076 25.5645V20.5132H35.9728V25.5645Z" stroke="white" stroke-width="1.5" stroke-linecap="round" stroke-linejoin="round"/>
<path d="M21.4512 42.1602C21.4512 36.9841 25.6818 32.7798 30.8902 32.7798C36.0986 32.7798 40.3292 36.9841 40.3292 42.1602" stroke="white" stroke-width="1.5" stroke-linecap="round" stroke-linejoin="round"/>
<path d="M19.999 20.5132H41.7813" stroke="white" stroke-width="1.5" stroke-linecap="round" stroke-linejoin="round"/>
<path d="M25.8076 24.8423H35.9727" stroke="white" stroke-width="1.5" stroke-linecap="round" stroke-linejoin="round"/>
<path d="M21.4511 20.5132V27.7295" stroke="white" stroke-width="1.5" stroke-linecap="round" stroke-linejoin="round"/>
<path d="M26.0596 34.0991L30.8904 37.832L35.7212 34.0991" stroke="white" stroke-width="1.5" stroke-linecap="round" stroke-linejoin="round"/>
</svg>
