<svg width="62" height="62" viewBox="0 0 62 62" fill="none" xmlns="http://www.w3.org/2000/svg">
<path d="M30.5976 61.7549C47.4962 61.7549 61.1952 48.1409 61.1952 31.3472C61.1952 14.5535 47.4962 0.939453 30.5976 0.939453C13.699 0.939453 0 14.5535 0 31.3472C0 48.1409 13.699 61.7549 30.5976 61.7549Z" fill="#00A7B3"/>
<path d="M60.6952 31.3472C60.6952 47.8618 47.223 61.2549 30.5976 61.2549C13.9722 61.2549 0.5 47.8618 0.5 31.3472C0.5 14.8325 13.9722 1.43945 30.5976 1.43945C47.223 1.43945 60.6952 14.8325 60.6952 31.3472Z" stroke="black" stroke-opacity="0.3"/>
<path d="M29.4884 39.8979C26.5511 39.8979 23.7922 38.7616 21.7046 36.687C19.6171 34.6124 18.4736 31.8706 18.4736 28.9515C18.4736 28.4824 18.8618 28.0967 19.3338 28.0967H40.5241C42.5697 28.0967 44.2377 29.7543 44.2377 31.7872C44.2377 34.456 42.0557 36.6245 39.3702 36.6245H37.3141L37.2197 36.7183C35.1426 38.772 32.3942 39.8979 29.4884 39.8979ZM20.2675 30.1609C20.8759 34.7375 24.8307 38.1882 29.4884 38.1882C34.1461 38.1882 38.1009 34.7375 38.7093 30.1609L38.7513 29.8064H20.2255L20.2675 30.1609ZM40.4297 30.0983C40.2724 31.6412 39.7793 33.1112 38.9925 34.456L38.7198 34.9252H39.3807C41.1221 34.9252 42.5383 33.5178 42.5383 31.7872C42.5383 30.7968 41.7934 29.9419 40.7968 29.8168L40.4716 29.7751L40.4297 30.0983Z" fill="white"/>
<path d="M20.7401 43.3916C20.268 43.3916 19.8799 43.0058 19.8799 42.5366C19.8799 42.0674 20.268 41.6816 20.7401 41.6816H38.2273C38.6994 41.6816 39.0875 42.0674 39.0875 42.5366C39.0875 43.0058 38.6994 43.3916 38.2273 43.3916H20.7401Z" fill="white"/>
<path d="M30.7987 26.1572C30.3266 26.1572 29.9385 25.7715 29.9385 25.3024C29.9385 23.2383 30.3895 22.1437 30.7777 21.1741C31.1658 20.2359 31.491 19.4228 31.491 17.6922C31.491 17.2231 31.8792 16.8374 32.3512 16.8374C32.8233 16.8374 33.2114 17.2231 33.2114 17.6922C33.2114 19.7564 32.7604 20.851 32.3722 21.8205C31.9841 22.7587 31.6589 23.5719 31.6589 25.3024C31.6589 25.7819 31.2707 26.1572 30.7987 26.1572Z" fill="white"/>
<path d="M26.6131 26.1572C26.1411 26.1572 25.7529 25.7715 25.7529 25.3024C25.7529 23.2383 26.204 22.1437 26.5921 21.1741C26.9803 20.2359 27.3055 19.4228 27.3055 17.6922C27.3055 17.2231 27.6936 16.8374 28.1657 16.8374C28.6377 16.8374 29.0259 17.2231 29.0259 17.6922C29.0259 19.7564 28.5748 20.851 28.1867 21.8205C27.7985 22.7587 27.4733 23.5614 27.4733 25.3024C27.4629 25.7819 27.0852 26.1572 26.6131 26.1572Z" fill="white"/>
</svg>
