<svg width="62" height="62" viewBox="0 0 62 62" fill="none" xmlns="http://www.w3.org/2000/svg">
<path d="M30.5976 61.0635C47.4962 61.0635 61.1952 47.4495 61.1952 30.6558C61.1952 13.862 47.4962 0.248047 30.5976 0.248047C13.699 0.248047 0 13.862 0 30.6558C0 47.4495 13.699 61.0635 30.5976 61.0635Z" fill="#00A7B3"/>
<path d="M60.6952 30.6558C60.6952 47.1704 47.223 60.5635 30.5976 60.5635C13.9722 60.5635 0.5 47.1704 0.5 30.6558C0.5 14.1411 13.9722 0.748047 30.5976 0.748047C47.223 0.748047 60.6952 14.1411 60.6952 30.6558Z" stroke="black" stroke-opacity="0.3"/>
<path fill-rule="evenodd" clip-rule="evenodd" d="M31.4618 35.4459C31.4618 33.6821 32.9327 32.2906 34.746 32.2906C34.8569 32.2906 35.0483 32.2906 35.2397 32.3298C35.3908 32.369 35.5419 32.2906 35.693 32.1828C35.8441 32.075 35.9147 31.8496 35.9147 31.7026V24.6865C35.9147 24.5003 35.8442 24.3141 35.7233 24.2456C35.5722 24.0986 35.421 24.0594 35.2296 24.0594L26.0117 25.0883C25.7498 25.1275 25.4878 25.3822 25.4878 25.6762V36.8766C25.4878 36.8766 25.4878 36.9157 25.4878 36.9451C25.4475 38.6012 23.9767 39.9927 22.2439 39.9927C20.4709 39.9927 19 38.562 19 36.8275C19 35.0637 20.4709 33.6723 22.2439 33.6723C22.3951 33.6723 22.5462 33.6723 22.7376 33.6723C22.929 33.7115 23.0801 33.6723 23.2312 33.5645C23.3823 33.4567 23.4226 33.2705 23.4226 33.0843V21.6978L38 20.1201V35.5439C37.9597 37.2391 36.5292 38.5914 34.7561 38.5914C32.9327 38.6012 31.4618 37.1705 31.4618 35.4459Z" stroke="white" stroke-width="1.2" stroke-miterlimit="10"/>
</svg>
