<svg width="62" height="62" viewBox="0 0 62 62" fill="none" xmlns="http://www.w3.org/2000/svg">
<path d="M30.5976 61.6914C47.4962 61.6914 61.1952 48.0774 61.1952 31.2837C61.1952 14.49 47.4962 0.875977 30.5976 0.875977C13.699 0.875977 0 14.49 0 31.2837C0 48.0774 13.699 61.6914 30.5976 61.6914Z" fill="#00A7B3"/>
<path d="M60.6952 31.2837C60.6952 47.7983 47.223 61.1914 30.5976 61.1914C13.9722 61.1914 0.5 47.7983 0.5 31.2837C0.5 14.7691 13.9722 1.37598 30.5976 1.37598C47.223 1.37598 60.6952 14.7691 60.6952 31.2837Z" stroke="black" stroke-opacity="0.3"/>
<path d="M18.0703 29.9182L23.8219 22.1816L38.3364 22.2201L44.0009 29.9182L31.0356 44.4097L18.0703 29.9182ZM31.0356 41.5133L35.1895 30.5436H26.8817L31.0356 41.5133ZM33.1271 39.7908L33.2917 39.8871L41.6479 30.5436H36.6322L33.1271 39.7908ZM28.7892 39.8871L28.9538 39.7908L25.4486 30.5532H20.4329L28.7892 39.8871ZM37.0292 29.2061H41.8125L38.2493 24.4141L37.0292 29.2061ZM27.2302 29.2061H34.8409L31.0356 24.0099L27.2302 29.2061ZM20.2586 29.2061H25.0419L23.8219 24.4141L20.2586 29.2061ZM35.8673 28.34L37.0873 23.5577H32.3621L35.8673 28.34ZM26.2135 28.34L29.7187 23.5577H24.9935L26.2135 28.34Z" fill="white"/>
</svg>
