<?xml version="1.0" encoding="UTF-8"?>
<!DOCTYPE svg PUBLIC "-//W3C//DTD SVG 1.1//EN" "http://www.w3.org/Graphics/SVG/1.1/DTD/svg11.dtd">
<!-- Creator: CorelDRAW 2019 (64-Bit) -->
<svg xmlns="http://www.w3.org/2000/svg" xml:space="preserve" width="16.2264mm" height="16.1324mm" version="1.1" style="shape-rendering:geometricPrecision; text-rendering:geometricPrecision; image-rendering:optimizeQuality; fill-rule:evenodd; clip-rule:evenodd"
viewBox="0 0 1620.56 1611.17"
 xmlns:xlink="http://www.w3.org/1999/xlink">
 <defs>
  <style type="text/css">
   <![CDATA[
    .str0 {stroke:black;stroke-width:26.43;stroke-miterlimit:22.9256;stroke-opacity:0.301961}
    .fil1 {fill:none}
    .fil0 {fill:#E85A12}
    .fil2 {fill:white}
   ]]>
  </style>
 </defs>
 <g id="Layer_x0020_1">
  <metadata id="CorelCorpID_0Corel-Layer"/>
  <g id="_2395246815888">
   <path class="fil0" d="M808.52 1611.17c446.54,0 808.52,-359.75 808.52,-803.51 0,-443.76 -361.99,-803.51 -808.52,-803.51 -446.54,0 -808.52,359.75 -808.52,803.51 0,443.76 361.99,803.51 808.52,803.51z"/>
   <path class="fil1 str0" d="M1607.35 803.51c0,436.39 -356,790.3 -795.32,790.3 -439.32,0 -795.31,-353.91 -795.31,-790.3 0,-436.39 355.99,-790.3 795.31,-790.3 439.32,0 795.32,353.91 795.32,790.3z"/>
   <path id="Vector.svg" class="fil2" d="M674.14 595.73c11.28,0 22.08,-4.47 30.03,-12.45 7.98,-7.95 12.45,-18.76 12.45,-30.03 0,-11.26 -4.47,-22.06 -12.45,-30.01 -7.95,-7.98 -18.76,-12.45 -30.03,-12.45 -11.26,0 -22.06,4.47 -30.01,12.45 -7.98,7.95 -12.45,18.76 -12.45,30.01 0,11.28 4.47,22.08 12.45,30.03 7.95,7.98 18.76,12.45 30.01,12.45zm42.49 127.4c0,11.28 -4.47,22.08 -12.45,30.03 -7.95,7.98 -18.76,12.45 -30.03,12.45 -11.26,0 -22.06,-4.47 -30.01,-12.45 -7.98,-7.95 -12.45,-18.76 -12.45,-30.03 0,-11.26 4.47,-22.06 12.45,-30.01 7.95,-7.98 18.76,-12.45 30.01,-12.45 11.28,0 22.08,4.47 30.03,12.45 7.98,7.95 12.45,18.76 12.45,30.01zm-42.49 212.37c5.58,0 11.12,-1.11 16.27,-3.25 5.15,-2.13 9.83,-5.26 13.76,-9.21 3.94,-3.93 7.08,-8.63 9.21,-13.78 2.14,-5.13 3.25,-10.67 3.25,-16.25 0,-5.56 -1.11,-11.1 -3.25,-16.25 -2.13,-5.15 -5.26,-9.83 -9.21,-13.78 -3.93,-3.92 -8.61,-7.06 -13.76,-9.21 -5.15,-2.12 -10.69,-3.23 -16.27,-3.23 -11.26,0 -22.06,4.47 -30.01,12.43 -7.98,7.97 -12.45,18.78 -12.45,30.03 0,11.28 4.47,22.06 12.45,30.03 7.95,7.98 18.76,12.45 30.01,12.45zm212.37 -382.25c0,11.28 -4.47,22.08 -12.45,30.03 -7.95,7.98 -18.76,12.45 -30.03,12.45 -11.26,0 -22.06,-4.47 -30.01,-12.45 -7.98,-7.95 -12.45,-18.76 -12.45,-30.03 0,-11.26 4.47,-22.06 12.45,-30.01 7.95,-7.98 18.76,-12.45 30.01,-12.45 11.28,0 22.08,4.47 30.03,12.45 7.98,7.95 12.45,18.76 12.45,30.01zm-42.49 212.37c11.28,0 22.08,-4.47 30.03,-12.45 7.98,-7.95 12.45,-18.76 12.45,-30.03 0,-11.26 -4.47,-22.06 -12.45,-30.01 -7.95,-7.98 -18.76,-12.45 -30.03,-12.45 -11.26,0 -22.06,4.47 -30.01,12.45 -7.98,7.95 -12.45,18.76 -12.45,30.01 0,11.28 4.47,22.08 12.45,30.03 7.95,7.98 18.76,12.45 30.01,12.45zm42.49 127.4c0,11.28 -4.47,22.06 -12.45,30.03 -7.95,7.98 -18.76,12.45 -30.03,12.45 -11.26,0 -22.06,-4.47 -30.01,-12.45 -7.98,-7.97 -12.45,-18.76 -12.45,-30.03 0,-11.26 4.47,-22.06 12.45,-30.03 7.95,-7.96 18.76,-12.43 30.01,-12.43 11.28,0 22.08,4.47 30.03,12.43 7.98,7.97 12.45,18.78 12.45,30.03zm127.4 42.49c5.58,0 11.12,-1.11 16.27,-3.25 5.15,-2.13 9.83,-5.26 13.76,-9.21 3.94,-3.93 7.08,-8.63 9.21,-13.78 2.14,-5.13 3.25,-10.67 3.25,-16.25 0,-5.56 -1.11,-11.1 -3.25,-16.25 -2.13,-5.15 -5.26,-9.83 -9.21,-13.78 -3.93,-3.92 -8.61,-7.06 -13.76,-9.21 -5.15,-2.12 -10.69,-3.23 -16.27,-3.23 -11.26,0 -22.06,4.47 -30.01,12.43 -7.98,7.97 -12.45,18.78 -12.45,30.03 0,11.28 4.47,22.06 12.45,30.03 7.95,7.98 18.76,12.45 30.01,12.45zm-467.16 311.44c-7.51,0 -14.71,-2.98 -20.03,-8.29 -5.31,-5.32 -8.29,-12.5 -8.29,-20.01l0 -792.78c0,-22.54 8.95,-44.14 24.88,-60.07 15.93,-15.93 37.54,-24.88 60.07,-24.88l339.76 0c22.52,0 44.12,8.95 60.05,24.88 15.93,15.93 24.88,37.53 24.88,60.07l0 254.81 84.95 0c22.52,0 44.12,8.95 60.05,24.88 15.93,15.93 24.88,37.53 24.88,60.07l0 453.02c0,7.51 -2.98,14.69 -8.29,20.01 -5.32,5.31 -12.5,8.29 -20.01,8.29l-622.9 0zm28.3 -821.09l0 764.46 113.25 0 0 -141.56c0,-7.51 2.98,-14.71 8.29,-20.03 5.32,-5.31 12.52,-8.29 20.03,-8.29l283.14 0c7.51,0 14.69,2.98 20.01,8.29 5.31,5.32 8.29,12.52 8.29,20.03l0 141.56 113.25 0 0 -424.7c0,-7.51 -2.98,-14.71 -8.29,-20.03 -5.32,-5.31 -12.5,-8.29 -20.01,-8.29l-113.25 0c-7.51,0 -14.71,-2.98 -20.03,-8.29 -5.31,-5.32 -8.29,-12.5 -8.29,-20.01l0 -283.14c0,-7.51 -2.98,-14.71 -8.29,-20.03 -5.32,-5.31 -12.5,-8.29 -20.01,-8.29l-339.76 0c-7.51,0 -14.71,2.98 -20.03,8.29 -5.31,5.32 -8.29,12.52 -8.29,20.03zm396.39 651.21l-84.93 0 0 113.25 84.93 0 0 -113.25zm-141.56 0l-84.95 0 0 113.25 84.95 0 0 -113.25z"/>
  </g>
 </g>
</svg>
