<svg width="62" height="62" viewBox="0 0 62 62" fill="none" xmlns="http://www.w3.org/2000/svg">
<path d="M30.5976 61.3599C47.4962 61.3599 61.1952 47.7458 61.1952 30.9519C61.1952 14.1581 47.4962 0.543945 30.5976 0.543945C13.699 0.543945 0 14.1581 0 30.9519C0 47.7458 13.699 61.3599 30.5976 61.3599Z" fill="#00A7B3"/>
<path d="M60.6952 30.9519C60.6952 47.4667 47.223 60.8599 30.5976 60.8599C13.9722 60.8599 0.5 47.4667 0.5 30.9519C0.5 14.4371 13.9722 1.04395 30.5976 1.04395C47.223 1.04395 60.6952 14.4371 60.6952 30.9519Z" stroke="black" stroke-opacity="0.3"/>
<path d="M21.7263 41.5186C20.9241 41.5186 20.264 40.8626 20.264 40.0654V30.6301H19.3806C19.0048 30.6301 18.7002 30.3273 18.7002 29.9539V26.0688C18.7002 25.2716 19.3602 24.6156 20.1625 24.6156H25.4429L25.1687 24.434C24.8031 24.1918 24.5086 23.9496 24.3055 23.7478C23.087 22.5267 23.087 20.5387 24.3055 19.3177C24.8742 18.7526 25.6866 18.4297 26.5294 18.4297C27.3722 18.4297 28.1846 18.7526 28.7533 19.3177C29.3727 19.9333 31.2005 22.6579 30.9568 24.5046L30.9365 24.6156H31.2818L31.2614 24.5046C31.0076 22.6579 32.8456 19.9333 33.465 19.3177C34.0337 18.7526 34.8359 18.4297 35.6889 18.4297C36.5317 18.4297 37.3441 18.7526 37.9127 19.3177C39.1313 20.5387 39.1313 22.5267 37.9127 23.7478C37.7096 23.9496 37.4151 24.1817 37.0496 24.434L36.7754 24.6156H42.0558C42.858 24.6156 43.5181 25.2716 43.5181 26.0688V29.9539C43.5181 30.3273 43.2134 30.6301 42.8377 30.6301H41.9543V40.0654C41.9543 40.8626 41.2942 41.5186 40.492 41.5186H21.7263ZM31.7996 40.1663H40.6138V30.6301H31.7996V40.1663ZM21.6247 40.1663H30.4389V30.6301H21.6247V40.1663ZM31.7996 29.2778H42.1777V25.9679H31.7996V29.2778ZM20.0609 29.2778H30.4389V25.9679H20.0609V29.2778ZM35.7092 19.7617C35.2319 19.7617 34.7749 19.9434 34.45 20.2663C33.3939 21.3259 32.2668 24.0707 32.7034 24.5349C32.7643 24.5753 32.8557 24.6156 33.069 24.6156C34.1758 24.6156 36.2778 23.4854 36.9582 22.7891C37.6589 22.0928 37.6589 20.9626 36.9582 20.2663C36.6434 19.9434 36.1864 19.7617 35.7092 19.7617ZM26.5396 19.7415C26.0623 19.7415 25.6155 19.9232 25.2804 20.2663C24.5797 20.9626 24.5797 22.0928 25.2804 22.7891C25.9709 23.4753 28.0729 24.6156 29.1696 24.6156C29.4133 24.6156 29.5047 24.5652 29.525 24.545C29.982 24.0808 28.8548 21.3259 27.7987 20.2663C27.4636 19.9232 27.0168 19.7415 26.5396 19.7415Z" fill="white"/>
</svg>
