<svg width="62" height="62" viewBox="0 0 62 62" fill="none" xmlns="http://www.w3.org/2000/svg">
<path d="M30.5976 61.585C47.4962 61.585 61.1952 47.971 61.1952 31.1772C61.1952 14.3835 47.4962 0.769531 30.5976 0.769531C13.699 0.769531 0 14.3835 0 31.1772C0 47.971 13.699 61.585 30.5976 61.585Z" fill="#00A7B3"/>
<path d="M60.6952 31.1772C60.6952 47.6919 47.223 61.085 30.5976 61.085C13.9722 61.085 0.5 47.6919 0.5 31.1772C0.5 14.6626 13.9722 1.26953 30.5976 1.26953C47.223 1.26953 60.6952 14.6626 60.6952 31.1772Z" stroke="black" stroke-opacity="0.3"/>
<path d="M16.6328 41.0233L17.6289 42.3277C17.8516 42.5839 18.168 42.7354 18.5078 42.7354C18.8477 42.7354 19.1758 42.5839 19.3867 42.3277L20.4883 41.0116C20.711 40.7554 21.0274 40.604 21.3672 40.604C21.7071 40.604 22.0352 40.7554 22.2461 41.0116L23.3477 42.3277C23.5704 42.5839 23.8868 42.7354 24.2266 42.7354C24.5665 42.7354 24.8946 42.5839 25.1056 42.3277L26.2071 41.0116C26.4298 40.7554 26.7462 40.604 27.0861 40.604C27.4259 40.604 27.754 40.7554 27.965 41.0116L29.0666 42.3277C29.2892 42.5839 29.6056 42.7354 29.9455 42.7354C30.2853 42.7354 30.6135 42.5839 30.8244 42.3277L31.926 41.0116C32.1486 40.7554 32.465 40.604 32.8049 40.604C33.1447 40.604 33.4729 40.7554 33.6838 41.0116L34.7854 42.3277C35.008 42.5839 35.3245 42.7354 35.6643 42.7354C36.0042 42.7354 36.3323 42.5839 36.5432 42.3277L37.6448 41.0116C37.8675 40.7554 38.1839 40.604 38.5237 40.604C38.8636 40.604 39.1917 40.7554 39.4026 41.0116L40.5042 42.3277C40.7269 42.5839 41.0433 42.7354 41.3831 42.7354C41.723 42.7354 42.0511 42.5839 42.2621 42.3277L42.9418 41.5124" stroke="white" stroke-width="1.5" stroke-miterlimit="10" stroke-linecap="round" stroke-linejoin="round"/>
<path d="M28.667 37.7505C30.2725 36.586 32.0655 35.7476 34.2101 35.7476H42.9993" stroke="white" stroke-width="1.5" stroke-miterlimit="10" stroke-linecap="round" stroke-linejoin="round"/>
<path d="M41.5823 24.1131C41.9339 23.9967 42.2035 23.7055 42.309 23.3561C42.4144 22.9951 42.3323 22.6224 42.0979 22.3312C39.1448 18.6625 34.0939 17.0553 29.3712 18.6858C24.6602 20.3164 21.6953 24.6955 21.6719 29.389C21.6719 29.7617 21.8477 30.1111 22.1524 30.3207C22.4571 30.5304 22.8438 30.5886 23.1953 30.4721L41.5823 24.1131Z" stroke="white" stroke-width="1.5" stroke-miterlimit="10" stroke-linecap="round" stroke-linejoin="round"/>
<path d="M29.3702 18.686L28.6201 16.5312" stroke="white" stroke-width="1.5" stroke-miterlimit="10" stroke-linecap="round" stroke-linejoin="round"/>
<path d="M32.3828 27.292L35.3478 35.7471" stroke="white" stroke-width="1.5" stroke-miterlimit="10" stroke-linecap="round" stroke-linejoin="round"/>
</svg>
