<svg width="62" height="62" viewBox="0 0 62 62" fill="none" xmlns="http://www.w3.org/2000/svg">
<path d="M30.5976 61.2847C47.4962 61.2847 61.1952 47.6705 61.1952 30.8767C61.1952 14.0828 47.4962 0.46875 30.5976 0.46875C13.699 0.46875 0 14.0828 0 30.8767C0 47.6705 13.699 61.2847 30.5976 61.2847Z" fill="#00A7B3"/>
<path d="M60.6952 30.8767C60.6952 47.3915 47.223 60.7847 30.5976 60.7847C13.9722 60.7847 0.5 47.3915 0.5 30.8767C0.5 14.3619 13.9722 0.96875 30.5976 0.96875C47.223 0.96875 60.6952 14.3619 60.6952 30.8767Z" stroke="black" stroke-opacity="0.3"/>
<path d="M33.3693 41.8007C34.0384 38.8961 32.2425 36.5164 34.1557 34.3234C36.069 32.1304 38.7335 34.0551 40.0012 33.7985C41.2689 33.5418 44.4029 30.0773 43.9569 26.5078C43.5109 22.9383 39.3322 20.2903 36.7381 19.4738C34.1558 18.6572 28.3103 18.0857 24.0377 20.5936C19.7651 23.1133 16.9597 27.7326 17.6288 33.7985C18.0866 37.8929 20.1055 43.0839 24.2607 44.7287C28.4276 46.3851 32.7003 44.7053 33.3693 41.8007Z" stroke="white" stroke-width="1.5" stroke-linecap="round" stroke-linejoin="round"/>
<path d="M38.8744 25.0168C38.8744 26.0668 38.0175 26.9185 36.9611 26.9185C35.9047 26.9185 35.0479 26.0668 35.0479 25.0168C35.0479 23.9669 35.9047 23.1152 36.9611 23.1152C38.0293 23.1152 38.8744 23.9669 38.8744 25.0168Z" stroke="white" stroke-width="1.5" stroke-linecap="round" stroke-linejoin="round"/>
<path d="M32.5355 23.522C32.5355 24.5718 31.6787 25.4233 30.6223 25.4233C29.5659 25.4233 28.709 24.5718 28.709 23.522C28.709 22.4721 29.5659 21.6206 30.6223 21.6206C31.6787 21.6323 32.5355 22.4721 32.5355 23.522Z" stroke="white" stroke-width="1.5" stroke-linecap="round" stroke-linejoin="round"/>
<path d="M26.8314 26.1699C26.8314 27.2198 25.9746 28.0713 24.9182 28.0713C23.8617 28.0713 23.0049 27.2198 23.0049 26.1699C23.0049 25.1201 23.8617 24.2686 24.9182 24.2686C25.9863 24.2686 26.8314 25.1201 26.8314 26.1699Z" stroke="white" stroke-width="1.5" stroke-linecap="round" stroke-linejoin="round"/>
<path d="M23.0158 34.3589C24.0725 34.3589 24.9291 33.5077 24.9291 32.4578C24.9291 31.4078 24.0725 30.5566 23.0158 30.5566C21.9591 30.5566 21.1025 31.4078 21.1025 32.4578C21.1025 33.5077 21.9591 34.3589 23.0158 34.3589Z" stroke="white" stroke-width="1.5" stroke-linecap="round" stroke-linejoin="round"/>
<path d="M24.9299 40.4009C25.9865 40.4009 26.8431 39.5496 26.8431 38.4995C26.8431 37.4494 25.9865 36.5981 24.9299 36.5981C23.8732 36.5981 23.0166 37.4494 23.0166 38.4995C23.0166 39.5496 23.8732 40.4009 24.9299 40.4009Z" stroke="white" stroke-width="1.5" stroke-linecap="round" stroke-linejoin="round"/>
</svg>
