<svg width="29" height="29" viewBox="0 0 29 29" fill="none" xmlns="http://www.w3.org/2000/svg">
<path d="M17.3693 23.8007C18.0384 20.8961 16.2425 18.5164 18.1557 16.3234C20.069 14.1304 22.7335 16.0551 24.0012 15.7985C25.2689 15.5418 28.4029 12.0773 27.9569 8.50781C27.5109 4.9383 23.3322 2.29033 20.7381 1.47378C18.1558 0.657222 12.3103 0.0856592 8.03766 2.59365C3.76506 5.1133 0.959713 9.73264 1.62877 15.7985C2.08655 19.8929 4.10547 25.0839 8.26069 26.7287C12.4276 28.3851 16.7003 26.7053 17.3693 23.8007Z" stroke="white" stroke-width="1.5" stroke-linecap="round" stroke-linejoin="round"/>
<path d="M22.8744 7.01683C22.8744 8.0668 22.0175 8.91846 20.9611 8.91846C19.9047 8.91846 19.0479 8.0668 19.0479 7.01683C19.0479 5.96685 19.9047 5.11523 20.9611 5.11523C22.0293 5.11523 22.8744 5.96685 22.8744 7.01683Z" stroke="white" stroke-width="1.5" stroke-linecap="round" stroke-linejoin="round"/>
<path d="M16.5355 5.52195C16.5355 6.5718 15.6787 7.42334 14.6223 7.42334C13.5659 7.42334 12.709 6.5718 12.709 5.52195C12.709 4.47211 13.5659 3.62061 14.6223 3.62061C15.6787 3.63227 16.5355 4.47211 16.5355 5.52195Z" stroke="white" stroke-width="1.5" stroke-linecap="round" stroke-linejoin="round"/>
<path d="M10.8314 8.16992C10.8314 9.21975 9.97455 10.0713 8.91815 10.0713C7.86175 10.0713 7.00488 9.21975 7.00488 8.16992C7.00488 7.12009 7.86175 6.26855 8.91815 6.26855C9.98629 6.26855 10.8314 7.12009 10.8314 8.16992Z" stroke="white" stroke-width="1.5" stroke-linecap="round" stroke-linejoin="round"/>
<path d="M7.01581 16.3589C8.07247 16.3589 8.92908 15.5077 8.92908 14.4578C8.92908 13.4078 8.07247 12.5566 7.01581 12.5566C5.95914 12.5566 5.10254 13.4078 5.10254 14.4578C5.10254 15.5077 5.95914 16.3589 7.01581 16.3589Z" stroke="white" stroke-width="1.5" stroke-linecap="round" stroke-linejoin="round"/>
<path d="M8.92987 22.4009C9.98654 22.4009 10.8431 21.5496 10.8431 20.4995C10.8431 19.4494 9.98654 18.5981 8.92987 18.5981C7.8732 18.5981 7.0166 19.4494 7.0166 20.4995C7.0166 21.5496 7.8732 22.4009 8.92987 22.4009Z" stroke="white" stroke-width="1.5" stroke-linecap="round" stroke-linejoin="round"/>
</svg>
