<svg width="26" height="24" viewBox="0 0 26 24" fill="none" xmlns="http://www.w3.org/2000/svg">
<path d="M3.72627 23.5186C2.92405 23.5186 2.264 22.8626 2.264 22.0654V12.6301H1.38055C1.00483 12.6301 0.700195 12.3273 0.700195 11.9539V8.06878C0.700195 7.27156 1.36024 6.61563 2.16245 6.61563H7.44286L7.16868 6.43399C6.80311 6.1918 6.50863 5.94962 6.30554 5.74779C5.08699 4.52674 5.08699 2.53874 6.30554 1.3177C6.8742 0.752583 7.68657 0.429688 8.5294 0.429688C9.37224 0.429688 10.1846 0.752583 10.7533 1.3177C11.3727 1.93327 13.2005 4.65793 12.9568 6.50464L12.9365 6.61563H13.2818L13.2614 6.50464C13.0076 4.65793 14.8456 1.93327 15.465 1.3177C16.0337 0.752583 16.8359 0.429688 17.6889 0.429688C18.5317 0.429688 19.3441 0.752583 19.9127 1.3177C21.1313 2.53874 21.1313 4.52674 19.9127 5.74779C19.7096 5.94962 19.4151 6.18171 19.0496 6.43399L18.7754 6.61563H24.0558C24.858 6.61563 25.5181 7.27156 25.5181 8.06878V11.9539C25.5181 12.3273 25.2134 12.6301 24.8377 12.6301H23.9543V22.0654C23.9543 22.8626 23.2942 23.5186 22.492 23.5186H3.72627ZM13.7996 22.1663H22.6138V12.6301H13.7996V22.1663ZM3.62472 22.1663H12.4389V12.6301H3.62472V22.1663ZM13.7996 11.2778H24.1777V7.96789H13.7996V11.2778ZM2.06091 11.2778H12.4389V7.96789H2.06091V11.2778ZM17.7092 1.76172C17.2319 1.76172 16.7749 1.94336 16.45 2.26628C15.3939 3.32587 14.2668 6.07071 14.7034 6.53491C14.7643 6.57528 14.8557 6.61563 15.069 6.61563C16.1758 6.61563 18.2778 5.4854 18.9582 4.78911C19.6589 4.09281 19.6589 2.96258 18.9582 2.26628C18.6434 1.94336 18.1864 1.76172 17.7092 1.76172ZM8.53955 1.74154C8.06228 1.74154 7.61548 1.92318 7.28038 2.26628C6.57971 2.96258 6.57971 4.09281 7.28038 4.78911C7.97089 5.47531 10.0729 6.61563 11.1696 6.61563C11.4133 6.61563 11.5047 6.56519 11.525 6.54501C11.982 6.08081 10.8548 3.32587 9.79873 2.26628C9.46363 1.92318 9.01682 1.74154 8.53955 1.74154Z" fill="white"/>
</svg>
