<svg width="28" height="24" viewBox="0 0 28 24" fill="none" xmlns="http://www.w3.org/2000/svg">
<path d="M26.7653 10.4824L20.4327 14.1153V10.7619H1.40137V22.3872H20.4327V18.9779L26.7653 22.5996V10.4824Z" stroke="white" stroke-width="1.4" stroke-miterlimit="10" stroke-linecap="round" stroke-linejoin="round"/>
<path d="M6.23848 10.4824C8.74814 10.4824 10.7826 8.46061 10.7826 5.96655C10.7826 3.47249 8.74814 1.45068 6.23848 1.45068C3.72882 1.45068 1.69434 3.47249 1.69434 5.96655C1.69434 8.46061 3.72882 10.4824 6.23848 10.4824Z" stroke="white" stroke-width="1.4" stroke-miterlimit="10" stroke-linecap="round" stroke-linejoin="round"/>
<path d="M15.3263 10.4824C17.8359 10.4824 19.8704 8.46061 19.8704 5.96655C19.8704 3.47249 17.8359 1.45068 15.3263 1.45068C12.8167 1.45068 10.7822 3.47249 10.7822 5.96655C10.7822 8.46061 12.8167 10.4824 15.3263 10.4824Z" stroke="white" stroke-width="1.4" stroke-miterlimit="10" stroke-linecap="round" stroke-linejoin="round"/>
</svg>
