<svg width="31" height="29" viewBox="0 0 31 29" fill="none" xmlns="http://www.w3.org/2000/svg">
<path d="M19.542 7.38818C21.1169 7.38818 22.3936 6.11937 22.3936 4.5542C22.3936 2.98903 21.1169 1.72021 19.542 1.72021C17.9671 1.72021 16.6904 2.98903 16.6904 4.5542C16.6904 6.11937 17.9671 7.38818 19.542 7.38818Z" stroke="white" stroke-width="1.5" stroke-miterlimit="10" stroke-linecap="round" stroke-linejoin="round"/>
<path d="M6.23352 28.1719C8.85856 28.1719 10.9866 26.0571 10.9866 23.4485C10.9866 20.8398 8.85856 18.7251 6.23352 18.7251C3.60848 18.7251 1.48047 20.8398 1.48047 23.4485C1.48047 26.0571 3.60848 28.1719 6.23352 28.1719Z" stroke="white" stroke-width="1.5" stroke-miterlimit="10" stroke-linecap="round" stroke-linejoin="round"/>
<path d="M25.2462 28.1719C27.8713 28.1719 29.9993 26.0571 29.9993 23.4485C29.9993 20.8398 27.8713 18.7251 25.2462 18.7251C22.6212 18.7251 20.4932 20.8398 20.4932 23.4485C20.4932 26.0571 22.6212 28.1719 25.2462 28.1719Z" stroke="white" stroke-width="1.5" stroke-miterlimit="10" stroke-linecap="round" stroke-linejoin="round"/>
<path d="M15.739 25.3379C14.6869 25.3379 13.8377 24.4939 13.8377 23.4485C13.8377 20.6143 12.266 18.0447 9.73099 16.7347C9.18596 16.4576 8.80566 15.9286 8.72961 15.3239C8.64089 14.7193 8.85638 14.1147 9.3 13.6865L14.4207 8.84953C14.8517 8.43386 15.4601 8.25751 16.0558 8.35828C16.6516 8.45905 17.1585 8.83695 17.4247 9.37858C17.4374 9.39118 18.8824 12.1119 21.43 12.1119C22.4821 12.1119 23.3313 12.9559 23.3313 14.0014C23.3313 15.0468 22.4821 15.8908 21.43 15.8908C18.6415 15.8908 16.6642 14.4044 15.4601 13.0818L13.6222 14.8201C16.1445 16.9489 17.6275 20.0727 17.6275 23.4485C17.6402 24.4939 16.791 25.3379 15.739 25.3379Z" stroke="white" stroke-width="1.5" stroke-miterlimit="10" stroke-linecap="round" stroke-linejoin="round"/>
</svg>
