<svg width="26" height="23" viewBox="0 0 26 23" fill="none" xmlns="http://www.w3.org/2000/svg">
<path d="M0.0703125 7.91816L5.82188 0.181641L20.3364 0.220139L26.0009 7.91816L13.0356 22.4097L0.0703125 7.91816ZM13.0356 19.5133L17.1895 8.54361H8.88165L13.0356 19.5133ZM15.1271 17.7908L15.2917 17.8871L23.6479 8.54361H18.6322L15.1271 17.7908ZM10.7892 17.8871L10.9538 17.7908L7.4486 8.55324H2.4329L10.7892 17.8871ZM19.0292 7.20607H23.8125L20.2493 2.41407L19.0292 7.20607ZM9.23024 7.20607H16.8409L13.0356 2.00991L9.23024 7.20607ZM2.25862 7.20607H7.04193L5.82188 2.41407L2.25862 7.20607ZM17.8673 6.34005L19.0873 1.55765H14.3621L17.8673 6.34005ZM8.21354 6.34005L11.7187 1.55765H6.99351L8.21354 6.34005Z" fill="white"/>
</svg>
