<svg width="26" height="27" viewBox="0 0 26 27" fill="none" xmlns="http://www.w3.org/2000/svg">
<path d="M10.6874 13.5404C10.6874 11.3333 8.88488 9.54199 6.66394 9.54199C4.44301 9.54199 2.6405 11.3333 2.6405 13.5404L1.83582 20.7375H4.24988L5.05457 25.5356H8.27332L9.078 20.7375" stroke="white" stroke-width="1.5" stroke-linecap="round" stroke-linejoin="round"/>
<path d="M6.66278 7.94287C8.44379 7.94287 9.88147 6.514 9.88147 4.7439C9.88147 2.9738 8.44379 1.54492 6.66278 1.54492C4.88178 1.54492 3.44409 2.9738 3.44409 4.7439C3.44409 6.514 4.88178 7.94287 6.66278 7.94287Z" stroke="white" stroke-width="1.5" stroke-linecap="round" stroke-linejoin="round"/>
<path d="M3.44421 4.74316C3.44421 4.74316 3.44421 8.7417 1.03015 8.7417" stroke="white" stroke-width="1.5" stroke-linecap="round" stroke-linejoin="round"/>
<path d="M9.88074 4.74316C9.88074 4.74316 9.88074 8.7417 12.2948 8.7417" stroke="white" stroke-width="1.5" stroke-linecap="round" stroke-linejoin="round"/>
<path d="M11.4911 17.539C11.4911 17.1018 11.8559 16.7393 12.2958 16.7393H19.538V12.8049C19.538 12.5703 19.6453 12.3464 19.8277 12.1971C20.0101 12.0479 20.2461 11.9839 20.4822 12.0159C23.3683 12.4957 25.4069 15.108 25.1601 18.0081C24.9133 20.9083 22.4778 23.1367 19.5487 23.1367H16.3299C13.6584 23.1367 11.5018 20.9936 11.5018 18.3387V17.539H11.4911Z" stroke="white" stroke-width="1.5" stroke-linecap="round" stroke-linejoin="round"/>
<path d="M22.3495 24.7349C22.5748 24.7349 22.7572 24.9164 22.7572 25.1406" stroke="white" stroke-width="1.5" stroke-linecap="round" stroke-linejoin="round"/>
<path d="M21.952 25.1406C21.952 24.9164 22.1344 24.7349 22.3597 24.7349" stroke="white" stroke-width="1.5" stroke-linecap="round" stroke-linejoin="round"/>
<path d="M22.349 25.5352C22.1237 25.5352 21.9413 25.3541 21.9413 25.1304" stroke="white" stroke-width="1.5" stroke-linecap="round" stroke-linejoin="round"/>
<path d="M22.7572 25.1406C22.7572 25.3646 22.5748 25.5459 22.3495 25.5459" stroke="white" stroke-width="1.5" stroke-linecap="round" stroke-linejoin="round"/>
<path d="M14.3026 24.7349C14.5279 24.7349 14.7103 24.9164 14.7103 25.1406" stroke="white" stroke-width="1.5" stroke-linecap="round" stroke-linejoin="round"/>
<path d="M13.9052 25.1406C13.9052 24.9164 14.0875 24.7349 14.3129 24.7349" stroke="white" stroke-width="1.5" stroke-linecap="round" stroke-linejoin="round"/>
<path d="M14.3013 25.5352C14.076 25.5352 13.8936 25.3541 13.8936 25.1304" stroke="white" stroke-width="1.5" stroke-linecap="round" stroke-linejoin="round"/>
<path d="M14.7103 25.1406C14.7103 25.3646 14.5279 25.5459 14.3026 25.5459" stroke="white" stroke-width="1.5" stroke-linecap="round" stroke-linejoin="round"/>
</svg>
