<svg width="24" height="32" viewBox="0 0 24 32" fill="none" xmlns="http://www.w3.org/2000/svg">
<path d="M5.5 9C5.89782 9 6.27936 8.84196 6.56066 8.56066C6.84196 8.27936 7 7.89782 7 7.5C7 7.10218 6.84196 6.72064 6.56066 6.43934C6.27936 6.15804 5.89782 6 5.5 6C5.10218 6 4.72064 6.15804 4.43934 6.43934C4.15804 6.72064 4 7.10218 4 7.5C4 7.89782 4.15804 8.27936 4.43934 8.56066C4.72064 8.84196 5.10218 9 5.5 9ZM7 13.5C7 13.8978 6.84196 14.2794 6.56066 14.5607C6.27936 14.842 5.89782 15 5.5 15C5.10218 15 4.72064 14.842 4.43934 14.5607C4.15804 14.2794 4 13.8978 4 13.5C4 13.1022 4.15804 12.7206 4.43934 12.4393C4.72064 12.158 5.10218 12 5.5 12C5.89782 12 6.27936 12.158 6.56066 12.4393C6.84196 12.7206 7 13.1022 7 13.5ZM5.5 21C5.69698 21 5.89204 20.9612 6.07403 20.8858C6.25601 20.8104 6.42137 20.6999 6.56066 20.5607C6.69995 20.4214 6.81044 20.256 6.88582 20.074C6.9612 19.892 7 19.697 7 19.5C7 19.303 6.9612 19.108 6.88582 18.926C6.81044 18.744 6.69995 18.5786 6.56066 18.4393C6.42137 18.3001 6.25601 18.1896 6.07403 18.1142C5.89204 18.0388 5.69698 18 5.5 18C5.10218 18 4.72064 18.158 4.43934 18.4393C4.15804 18.7206 4 19.1022 4 19.5C4 19.8978 4.15804 20.2794 4.43934 20.5607C4.72064 20.842 5.10218 21 5.5 21V21ZM13 7.5C13 7.89782 12.842 8.27936 12.5607 8.56066C12.2794 8.84196 11.8978 9 11.5 9C11.1022 9 10.7206 8.84196 10.4393 8.56066C10.158 8.27936 10 7.89782 10 7.5C10 7.10218 10.158 6.72064 10.4393 6.43934C10.7206 6.15804 11.1022 6 11.5 6C11.8978 6 12.2794 6.15804 12.5607 6.43934C12.842 6.72064 13 7.10218 13 7.5ZM11.5 15C11.8978 15 12.2794 14.842 12.5607 14.5607C12.842 14.2794 13 13.8978 13 13.5C13 13.1022 12.842 12.7206 12.5607 12.4393C12.2794 12.158 11.8978 12 11.5 12C11.1022 12 10.7206 12.158 10.4393 12.4393C10.158 12.7206 10 13.1022 10 13.5C10 13.8978 10.158 14.2794 10.4393 14.5607C10.7206 14.842 11.1022 15 11.5 15ZM13 19.5C13 19.8978 12.842 20.2794 12.5607 20.5607C12.2794 20.842 11.8978 21 11.5 21C11.1022 21 10.7206 20.842 10.4393 20.5607C10.158 20.2794 10 19.8978 10 19.5C10 19.1022 10.158 18.7206 10.4393 18.4393C10.7206 18.158 11.1022 18 11.5 18C11.8978 18 12.2794 18.158 12.5607 18.4393C12.842 18.7206 13 19.1022 13 19.5ZM17.5 21C17.697 21 17.892 20.9612 18.074 20.8858C18.256 20.8104 18.4214 20.6999 18.5607 20.5607C18.6999 20.4214 18.8104 20.256 18.8858 20.074C18.9612 19.892 19 19.697 19 19.5C19 19.303 18.9612 19.108 18.8858 18.926C18.8104 18.744 18.6999 18.5786 18.5607 18.4393C18.4214 18.3001 18.256 18.1896 18.074 18.1142C17.892 18.0388 17.697 18 17.5 18C17.1022 18 16.7206 18.158 16.4393 18.4393C16.158 18.7206 16 19.1022 16 19.5C16 19.8978 16.158 20.2794 16.4393 20.5607C16.7206 20.842 17.1022 21 17.5 21V21ZM1 32C0.734784 32 0.48043 31.8946 0.292893 31.7071C0.105357 31.5196 0 31.2652 0 31V3C0 2.20435 0.31607 1.44129 0.878679 0.87868C1.44129 0.316071 2.20435 0 3 0H15C15.7956 0 16.5587 0.316071 17.1213 0.87868C17.6839 1.44129 18 2.20435 18 3V12H21C21.7956 12 22.5587 12.3161 23.1213 12.8787C23.6839 13.4413 24 14.2044 24 15V31C24 31.2652 23.8946 31.5196 23.7071 31.7071C23.5196 31.8946 23.2652 32 23 32H1ZM2 3V30H6V25C6 24.7348 6.10536 24.4804 6.29289 24.2929C6.48043 24.1054 6.73478 24 7 24H17C17.2652 24 17.5196 24.1054 17.7071 24.2929C17.8946 24.4804 18 24.7348 18 25V30H22V15C22 14.7348 21.8946 14.4804 21.7071 14.2929C21.5196 14.1054 21.2652 14 21 14H17C16.7348 14 16.4804 13.8946 16.2929 13.7071C16.1054 13.5196 16 13.2652 16 13V3C16 2.73478 15.8946 2.48043 15.7071 2.29289C15.5196 2.10536 15.2652 2 15 2H3C2.73478 2 2.48043 2.10536 2.29289 2.29289C2.10536 2.48043 2 2.73478 2 3ZM16 26H13V30H16V26ZM11 26H8V30H11V26Z" fill="white"/>
</svg>
