<svg width="21" height="22" viewBox="0 0 21 22" fill="none" xmlns="http://www.w3.org/2000/svg">
<path fill-rule="evenodd" clip-rule="evenodd" d="M13.4618 16.4459C13.4618 14.6821 14.9327 13.2906 16.746 13.2906C16.8569 13.2906 17.0483 13.2906 17.2397 13.3298C17.3908 13.369 17.5419 13.2906 17.693 13.1828C17.8441 13.075 17.9147 12.8496 17.9147 12.7026V5.68652C17.9147 5.50034 17.8442 5.31414 17.7233 5.24555C17.5722 5.09856 17.421 5.05937 17.2296 5.05937L8.01169 6.08826C7.74976 6.12745 7.48781 6.38221 7.48781 6.67618V17.8766C7.48781 17.8766 7.48781 17.9157 7.48781 17.9451C7.44752 19.6012 5.97671 20.9927 4.24394 20.9927C2.47087 20.9927 1 19.562 1 17.8275C1 16.0637 2.47087 14.6723 4.24394 14.6723C4.39505 14.6723 4.54615 14.6723 4.73756 14.6723C4.92898 14.7115 5.08008 14.6723 5.23119 14.5645C5.38231 14.4567 5.42261 14.2705 5.42261 14.0843V2.69775L20 1.12012V16.5439C19.9597 18.2391 18.5292 19.5914 16.7561 19.5914C14.9327 19.6012 13.4618 18.1705 13.4618 16.4459Z" stroke="white" stroke-width="1.2" stroke-miterlimit="10"/>
</svg>
