<svg width="29" height="29" viewBox="0 0 29 29" fill="none" xmlns="http://www.w3.org/2000/svg">
<path d="M1.63281 26.0233L2.62889 27.3277C2.85155 27.5839 3.16796 27.7354 3.50781 27.7354C3.84766 27.7354 4.17579 27.5839 4.38673 27.3277L5.48831 26.0116C5.71097 25.7554 6.02738 25.604 6.36722 25.604C6.70707 25.604 7.0352 25.7554 7.24614 26.0116L8.34772 27.3277C8.57038 27.5839 8.88679 27.7354 9.22664 27.7354C9.56649 27.7354 9.89462 27.5839 10.1056 27.3277L11.2071 26.0116C11.4298 25.7554 11.7462 25.604 12.0861 25.604C12.4259 25.604 12.754 25.7554 12.965 26.0116L14.0666 27.3277C14.2892 27.5839 14.6056 27.7354 14.9455 27.7354C15.2853 27.7354 15.6135 27.5839 15.8244 27.3277L16.926 26.0116C17.1486 25.7554 17.465 25.604 17.8049 25.604C18.1447 25.604 18.4729 25.7554 18.6838 26.0116L19.7854 27.3277C20.008 27.5839 20.3245 27.7354 20.6643 27.7354C21.0042 27.7354 21.3323 27.5839 21.5432 27.3277L22.6448 26.0116C22.8675 25.7554 23.1839 25.604 23.5237 25.604C23.8636 25.604 24.1917 25.7554 24.4026 26.0116L25.5042 27.3277C25.7269 27.5839 26.0433 27.7354 26.3831 27.7354C26.723 27.7354 27.0511 27.5839 27.2621 27.3277L27.9418 26.5124" stroke="white" stroke-width="1.5" stroke-miterlimit="10" stroke-linecap="round" stroke-linejoin="round"/>
<path d="M13.667 22.7505C15.2725 21.586 17.0655 20.7476 19.2101 20.7476H27.9993" stroke="white" stroke-width="1.5" stroke-miterlimit="10" stroke-linecap="round" stroke-linejoin="round"/>
<path d="M26.5823 9.11313C26.9339 8.99666 27.2035 8.7055 27.309 8.3561C27.4144 7.99506 27.3323 7.62237 27.0979 7.3312C24.1448 3.66255 19.0939 2.05533 14.3712 3.68585C9.66021 5.31636 6.69531 9.69545 6.67188 14.389C6.67188 14.7617 6.8477 15.1111 7.15239 15.3207C7.45708 15.5304 7.84375 15.5886 8.19532 15.4721L26.5823 9.11313Z" stroke="white" stroke-width="1.5" stroke-miterlimit="10" stroke-linecap="round" stroke-linejoin="round"/>
<path d="M14.3702 3.68604L13.6201 1.53125" stroke="white" stroke-width="1.5" stroke-miterlimit="10" stroke-linecap="round" stroke-linejoin="round"/>
<path d="M17.3828 12.292L20.3478 20.7471" stroke="white" stroke-width="1.5" stroke-miterlimit="10" stroke-linecap="round" stroke-linejoin="round"/>
</svg>
