<svg width="27" height="28" viewBox="0 0 27 28" fill="none" xmlns="http://www.w3.org/2000/svg">
<path d="M11.4884 23.8979C8.55112 23.8979 5.7922 22.7616 3.70465 20.687C1.61709 18.6124 0.473633 15.8706 0.473633 12.9515C0.473633 12.4824 0.86178 12.0967 1.33384 12.0967H22.5241C24.5697 12.0967 26.2377 13.7543 26.2377 15.7872C26.2377 18.456 24.0557 20.6245 21.3702 20.6245H19.3141L19.2197 20.7183C17.1426 22.772 14.3942 23.8979 11.4884 23.8979ZM2.26749 14.1609C2.87592 18.7375 6.83072 22.1882 11.4884 22.1882C16.1461 22.1882 20.1009 18.7375 20.7093 14.1609L20.7513 13.8064H2.22549L2.26749 14.1609ZM22.4297 14.0983C22.2724 15.6412 21.7793 17.1112 20.9925 18.456L20.7198 18.9252H21.3807C23.1221 18.9252 24.5383 17.5178 24.5383 15.7872C24.5383 14.7968 23.7934 13.9419 22.7968 13.8168L22.4716 13.7751L22.4297 14.0983Z" fill="white"/>
<path d="M2.74009 27.3916C2.26803 27.3916 1.87988 27.0058 1.87988 26.5366C1.87988 26.0674 2.26803 25.6816 2.74009 25.6816H20.2273C20.6994 25.6816 21.0875 26.0674 21.0875 26.5366C21.0875 27.0058 20.6994 27.3916 20.2273 27.3916H2.74009Z" fill="white"/>
<path d="M12.7987 10.1572C12.3266 10.1572 11.9385 9.77151 11.9385 9.3024C11.9385 7.23827 12.3895 6.14366 12.7777 5.17415C13.1658 4.23591 13.491 3.42277 13.491 1.69225C13.491 1.22313 13.8792 0.837402 14.3512 0.837402C14.8233 0.837402 15.2114 1.22313 15.2114 1.69225C15.2114 3.75637 14.7604 4.85097 14.3722 5.82048C13.9841 6.75872 13.6589 7.57187 13.6589 9.3024C13.6589 9.78194 13.2707 10.1572 12.7987 10.1572Z" fill="white"/>
<path d="M8.61314 10.1572C8.14108 10.1572 7.75293 9.77151 7.75293 9.3024C7.75293 7.23827 8.204 6.14366 8.59214 5.17415C8.98027 4.23591 9.30546 3.42277 9.30546 1.69225C9.30546 1.22313 9.69361 0.837402 10.1657 0.837402C10.6377 0.837402 11.0259 1.22313 11.0259 1.69225C11.0259 3.75637 10.5748 4.85097 10.1867 5.82048C9.79853 6.75872 9.47334 7.56145 9.47334 9.3024C9.46285 9.78194 9.0852 10.1572 8.61314 10.1572Z" fill="white"/>
</svg>
