<svg width="40" height="40" viewBox="0 0 40 40" fill="none" xmlns="http://www.w3.org/2000/svg">
<g filter="url(#filter0_d_130_3460)">
<path fill-rule="evenodd" clip-rule="evenodd" d="M34.7562 19.8284L20.0479 5.07178L5.24455 19.8268C5.09251 19.9837 5.0082 20.1941 5.00979 20.4126C5.01137 20.6311 5.09872 20.8403 5.25301 20.995C5.4073 21.1497 5.6162 21.2377 5.8347 21.2399C6.05321 21.2421 6.26383 21.1584 6.42121 21.0068L8.33288 19.1018V34.1668C8.33288 34.3878 8.42068 34.5998 8.57696 34.756C8.73324 34.9123 8.9452 35.0001 9.16621 35.0001H16.6662C16.8872 35.0001 17.0992 34.9123 17.2555 34.756C17.4117 34.5998 17.4995 34.3878 17.4995 34.1668V26.8826C17.4995 26.6616 17.5873 26.4496 17.7436 26.2934C17.8999 26.1371 18.1119 26.0493 18.3329 26.0493H21.6662C21.8872 26.0493 22.0992 26.1371 22.2555 26.2934C22.4118 26.4496 22.4995 26.6616 22.4995 26.8826V34.1659C22.4995 34.387 22.5873 34.5989 22.7436 34.7552C22.8999 34.9115 23.1119 34.9993 23.3329 34.9993H30.8329C31.0539 34.9993 31.2659 34.9115 31.4221 34.7552C31.5784 34.5989 31.6662 34.387 31.6662 34.1659V19.0901L33.5762 21.0059C33.7332 21.158 33.9436 21.2423 34.1621 21.2407C34.3806 21.2391 34.5897 21.1518 34.7444 20.9975C34.8992 20.8432 34.9871 20.6343 34.9893 20.4158C34.9915 20.1973 34.9078 19.9867 34.7562 19.8293V19.8284ZM29.9995 17.4168L20.0437 7.42844L9.99955 17.4401V33.3334H15.8329V26.8826C15.8329 26.2196 16.0963 25.5837 16.5651 25.1148C17.034 24.646 17.6698 24.3826 18.3329 24.3826H21.6662C22.3293 24.3826 22.9651 24.646 23.434 25.1148C23.9028 25.5837 24.1662 26.2196 24.1662 26.8826V33.3326H29.9995V17.4168Z" fill="white"/>
</g>
<defs>
<filter id="filter0_d_130_3460" x="-1" y="0" width="42" height="42" filterUnits="userSpaceOnUse" color-interpolation-filters="sRGB">
<feFlood flood-opacity="0" result="BackgroundImageFix"/>
<feColorMatrix in="SourceAlpha" type="matrix" values="0 0 0 0 0 0 0 0 0 0 0 0 0 0 0 0 0 0 127 0" result="hardAlpha"/>
<feOffset dy="1"/>
<feGaussianBlur stdDeviation="0.5"/>
<feComposite in2="hardAlpha" operator="out"/>
<feColorMatrix type="matrix" values="0 0 0 0 0 0 0 0 0 0 0 0 0 0 0 0 0 0 0.3 0"/>
<feBlend mode="normal" in2="BackgroundImageFix" result="effect1_dropShadow_130_3460"/>
<feBlend mode="normal" in="SourceGraphic" in2="effect1_dropShadow_130_3460" result="shape"/>
</filter>
</defs>
</svg>
