<svg width="24" height="24" viewBox="0 0 24 24" fill="none" xmlns="http://www.w3.org/2000/svg">
<path d="M11.5 3C6.81268 3 3 6.81268 3 11.5C3 16.1873 6.81268 20 11.5 20C16.1873 20 20 16.1873 20 11.5C20 6.81268 16.1873 3 11.5 3ZM11.5 4.18488C15.5465 4.18488 18.815 7.45356 18.815 11.4998C18.815 15.5463 15.5463 18.8134 11.5 18.8134C7.4535 18.8134 4.1864 15.5462 4.1864 11.4998C4.1864 7.45333 7.45363 4.18488 11.5 4.18488Z" fill="#5F727C"/>
<path d="M11.4913 5.758C11.3343 5.76051 11.1846 5.82524 11.0751 5.93789C10.9658 6.05067 10.9055 6.20224 10.9076 6.35925V11.5C10.9078 11.6571 10.9703 11.8078 11.0813 11.9188L14.2434 15.0809C14.3532 15.1982 14.5058 15.2658 14.6663 15.2686C14.8269 15.2713 14.9816 15.2088 15.0953 15.0953C15.2091 14.9819 15.2718 14.8272 15.2694 14.6666C15.2669 14.506 15.1995 14.3534 15.0825 14.2434L12.094 11.2535V6.35914L12.0939 6.35901C12.0962 6.1987 12.0333 6.04422 11.9197 5.93091C11.8063 5.81773 11.6517 5.75525 11.4912 5.75789L11.4913 5.758Z" fill="#5F727C"/>
</svg>
