<svg width="125" height="42" viewBox="0 0 125 42" fill="none" xmlns="http://www.w3.org/2000/svg">
<path d="M93.9734 19.9982C91.9881 19.9982 90.267 19.634 88.8099 18.9054C87.371 18.1769 86.2509 17.1752 85.4495 15.9002C84.6664 14.6071 84.2748 13.1227 84.2748 11.4471C84.2748 9.75324 84.5662 8.21421 85.149 6.83C85.7501 5.42757 86.5879 4.21638 87.6625 3.19644C88.737 2.17649 90.012 1.39332 91.4872 0.846919C92.9625 0.282306 94.5744 0 96.3229 0C98.3081 0 100.02 0.364266 101.459 1.0928C102.916 1.82133 104.036 2.83217 104.819 4.12532C105.621 5.40025 106.021 6.87553 106.021 8.55116C106.021 10.245 105.721 11.7931 105.12 13.1956C104.537 14.5798 103.708 15.7818 102.634 16.8018C101.559 17.8217 100.284 18.614 98.809 19.1786C97.3337 19.725 95.7219 19.9982 93.9734 19.9982ZM94.5198 14.7801C95.3212 14.7801 96.0224 14.6253 96.6234 14.3157C97.2427 14.0061 97.7709 13.578 98.208 13.0316C98.6451 12.4852 98.9729 11.866 99.1915 11.1739C99.41 10.4636 99.5193 9.71681 99.5193 8.93364C99.5193 8.18689 99.3645 7.54032 99.0549 6.99392C98.7635 6.42931 98.3355 5.99219 97.7709 5.68256C97.2245 5.37293 96.5597 5.21812 95.7765 5.21812C94.9933 5.21812 94.2921 5.37293 93.6729 5.68256C93.0536 5.99219 92.5254 6.4202 92.0883 6.9666C91.6512 7.513 91.3233 8.14136 91.1048 8.85168C90.8862 9.54379 90.7769 10.2814 90.7769 11.0646C90.7769 11.7931 90.9226 12.4397 91.2141 13.0043C91.5237 13.5689 91.9517 14.0061 92.4981 14.3157C93.0627 14.6253 93.7366 14.7801 94.5198 14.7801Z" fill="black"/>
<path d="M75.024 19.561L78.8488 0.437012H85.2963L81.4715 19.561H75.024Z" fill="black"/>
<path d="M53.8187 19.561L57.6435 0.437012H66.2766C68.2983 0.437012 70.0376 0.764852 71.4947 1.42053C72.9518 2.07621 74.0719 3.0142 74.8551 4.23449C75.6382 5.43657 76.0298 6.87542 76.0298 8.55105C76.0298 10.2449 75.7293 11.7657 75.1283 13.1135C74.5454 14.4613 73.7167 15.6178 72.6421 16.5831C71.5858 17.5484 70.3291 18.2861 68.872 18.796C67.4149 19.306 65.8121 19.561 64.0637 19.561H53.8187ZM61.277 14.5341H64.2822C65.4297 14.5341 66.3859 14.2882 67.1508 13.7965C67.934 13.2865 68.5259 12.6126 68.9266 11.7748C69.3273 10.9188 69.5277 9.97169 69.5277 8.93353C69.5277 8.18678 69.3728 7.55842 69.0632 7.04845C68.7718 6.53848 68.3256 6.14689 67.7245 5.87369C67.1417 5.60049 66.4132 5.46389 65.5389 5.46389H63.0801L61.277 14.5341Z" fill="black"/>
<path d="M43.4052 19.9981C41.4199 19.9981 39.7625 19.6248 38.4329 18.878C37.1033 18.113 36.1563 17.0567 35.5916 15.7089C35.0452 14.3429 34.9542 12.7583 35.3184 10.9552L37.4221 0.437012H43.8696L41.7933 10.8459C41.6658 11.5198 41.6203 12.1026 41.6567 12.5944C41.6931 13.0862 41.8115 13.496 42.0118 13.8238C42.2304 14.1516 42.5218 14.3975 42.8861 14.5614C43.2503 14.7072 43.6875 14.78 44.1974 14.78C44.8167 14.78 45.3449 14.6525 45.782 14.3975C46.2373 14.1425 46.6107 13.7236 46.9021 13.1408C47.2117 12.558 47.4576 11.793 47.6398 10.8459L49.7161 0.437012H56.0543L53.896 11.2284C53.3314 14.0879 52.1749 16.2644 50.4264 17.7579C48.6779 19.2514 46.3375 19.9981 43.4052 19.9981Z" fill="black"/>
<path d="M21.6717 19.561L24.4857 5.43657H18.8851L19.8959 0.437012H37.5446L36.5338 5.43657H30.9332L28.1192 19.561H21.6717Z" fill="black"/>
<path d="M8.79096 19.9982C7.66173 19.9982 6.57804 19.9163 5.53988 19.7524C4.50172 19.5884 3.55463 19.3608 2.6986 19.0694C1.86079 18.7597 1.13225 18.4228 0.513 18.0585L2.99912 13.3048C3.70944 13.7055 4.41976 14.0425 5.13008 14.3157C5.85861 14.5707 6.57804 14.7619 7.28836 14.8894C8.01689 15.0169 8.73632 15.0806 9.44664 15.0806C10.0113 15.0806 10.4757 15.0351 10.84 14.944C11.2224 14.853 11.5047 14.7255 11.6869 14.5616C11.8872 14.3794 11.9874 14.1791 11.9874 13.9605C11.9874 13.6691 11.8235 13.4323 11.4956 13.2502C11.1678 13.0681 10.7307 12.9041 10.1843 12.7584C9.65609 12.6127 9.06416 12.467 8.40848 12.3213C7.77101 12.1574 7.12444 11.9571 6.46876 11.7203C5.81308 11.4653 5.21204 11.1466 4.66564 10.7641C4.13745 10.3816 3.70944 9.89894 3.3816 9.31612C3.05376 8.73329 2.88984 8.02297 2.88984 7.18516C2.88984 5.72809 3.27232 4.46227 4.03728 3.38768C4.82045 2.31309 5.93147 1.48439 7.37032 0.90156C8.82739 0.30052 10.5577 0 12.5611 0C13.9818 0 15.6449 0.233629 16.9203 0.305627C18.5061 0.395144 20.5981 0.47697 24.456 0.437119L24.2915 5.42438C19.951 5.51695 18.0332 5.46651 16.5157 5.32153C14.9009 5.16725 13.0802 4.9176 12.1513 4.9176C11.5321 4.9176 11.013 4.98135 10.5941 5.10884C10.1752 5.21812 9.85644 5.37293 9.63788 5.57328C9.43753 5.77362 9.33736 5.98308 9.33736 6.20164C9.33736 6.49305 9.50128 6.73893 9.82912 6.93928C10.157 7.12141 10.5941 7.28533 11.1405 7.43104C11.6869 7.55853 12.2788 7.70424 12.9163 7.86816C13.572 8.01386 14.2185 8.20511 14.856 8.44188C15.5117 8.66044 16.1127 8.96096 16.6591 9.34344C17.2055 9.7077 17.6426 10.1813 17.9705 10.7641C18.2983 11.3287 18.4622 12.0299 18.4622 12.8677C18.4622 14.2884 18.0707 15.536 17.2875 16.6106C16.5043 17.6669 15.3842 18.4956 13.9271 19.0967C12.4883 19.6977 10.7762 19.9982 8.79096 19.9982Z" fill="black"/>
<path d="M20.309 36.52L21.2652 29.2802L29.789 21.3301H37.1927L27.3849 30.2364L23.0137 34.0066L20.309 36.52ZM13.7249 40.4541L17.5497 21.3301H23.8879L20.0631 40.4541H13.7249ZM26.6472 40.4541L22.0301 33.0231L26.8111 28.7065L33.8324 40.4541H26.6472ZM43.3195 40.8912C41.3342 40.8912 39.6131 40.527 38.156 39.7984C36.7171 39.0699 35.597 38.0682 34.7956 36.7932C34.0125 35.5001 33.6209 34.0157 33.6209 32.3401C33.6209 30.6462 33.9123 29.1072 34.4951 27.723C35.0961 26.3206 35.934 25.1094 37.0085 24.0894C38.0831 23.0695 39.3581 22.2863 40.8333 21.7399C42.3086 21.1753 43.9205 20.893 45.669 20.893C47.6542 20.893 49.3663 21.2573 50.8051 21.9858C52.2622 22.7143 53.3823 23.7252 54.1655 25.0183C54.9669 26.2932 55.3676 27.7685 55.3676 29.4441C55.3676 31.138 55.0671 32.6861 54.466 34.0885C53.8832 35.4728 53.0545 36.6748 51.9799 37.6948C50.9053 38.7147 49.6304 39.507 48.1551 40.0716C46.6798 40.618 45.0679 40.8912 43.3195 40.8912ZM43.8659 35.6731C44.6673 35.6731 45.3685 35.5183 45.9695 35.2087C46.5888 34.899 47.1169 34.471 47.5541 33.9246C47.9912 33.3782 48.319 32.759 48.5376 32.0669C48.7561 31.3565 48.8654 30.6098 48.8654 29.8266C48.8654 29.0799 48.7106 28.4333 48.401 27.8869C48.1096 27.3223 47.6816 26.8852 47.1169 26.5755C46.5705 26.2659 45.9058 26.1111 45.1226 26.1111C44.3394 26.1111 43.6382 26.2659 43.0189 26.5755C42.3997 26.8852 41.8715 27.3132 41.4344 27.8596C40.9973 28.406 40.6694 29.0343 40.4509 29.7447C40.2323 30.4368 40.123 31.1744 40.123 31.9576C40.123 32.6861 40.2687 33.3327 40.5601 33.8973C40.8698 34.4619 41.2978 34.899 41.8442 35.2087C42.4088 35.5183 43.0827 35.6731 43.8659 35.6731ZM54.3473 40.4541L58.1721 21.3301H63.4176L68.5264 33.8153H65.7398L75.575 21.3301H81.0663L77.2961 40.4541H71.4223L73.4167 30.1818L74.3456 30.1271L67.7341 38.7329H64.8929L61.1773 30.0998L62.2701 30.1818L60.2211 40.4541H54.3473ZM89.8115 40.8912C87.8262 40.8912 86.1051 40.527 84.648 39.7984C83.2091 39.0699 82.089 38.0682 81.2876 36.7932C80.5045 35.5001 80.1129 34.0157 80.1129 32.3401C80.1129 30.6462 80.4043 29.1072 80.9871 27.723C81.5882 26.3206 82.426 25.1094 83.5006 24.0894C84.5751 23.0695 85.8501 22.2863 87.3254 21.7399C88.8006 21.1753 90.4125 20.893 92.161 20.893C94.1463 20.893 95.8583 21.2573 97.2972 21.9858C98.7542 22.7143 99.8743 23.7252 100.658 25.0183C101.459 26.2932 101.86 27.7685 101.86 29.4441C101.86 31.138 101.559 32.6861 100.958 34.0885C100.375 35.4728 99.5465 36.6748 98.4719 37.6948C97.3973 38.7147 96.1224 39.507 94.6471 40.0716C93.1718 40.618 91.56 40.8912 89.8115 40.8912ZM90.3579 35.6731C91.1593 35.6731 91.8605 35.5183 92.4615 35.2087C93.0808 34.899 93.609 34.471 94.0461 33.9246C94.4832 33.3782 94.811 32.759 95.0296 32.0669C95.2482 31.3565 95.3574 30.6098 95.3574 29.8266C95.3574 29.0799 95.2026 28.4333 94.893 27.8869C94.6016 27.3223 94.1736 26.8852 93.609 26.5755C93.0626 26.2659 92.3978 26.1111 91.6146 26.1111C90.8314 26.1111 90.1302 26.2659 89.511 26.5755C88.8917 26.8852 88.3635 27.3132 87.9264 27.8596C87.4893 28.406 87.1614 29.0343 86.9429 29.7447C86.7243 30.4368 86.615 31.1744 86.615 31.9576C86.615 32.6861 86.7607 33.3327 87.0522 33.8973C87.3618 34.4619 87.7898 34.899 88.3362 35.2087C88.9008 35.5183 89.5747 35.6731 90.3579 35.6731ZM106.183 40.4541L101.921 21.3301H108.532L111.975 37.5309H107.767L117.821 21.3301H124.433L112.521 40.4541H106.183Z" fill="black"/>
</svg>
