<svg width="24" height="24" viewBox="0 0 24 24" fill="none" xmlns="http://www.w3.org/2000/svg">
<path d="M5.6 7.16294V17.5446L9.652 15.7879L14.452 18.2166L18.4 16.5027V6.12186L19.4424 5.67013C19.5033 5.64372 19.5697 5.63303 19.6356 5.639C19.7016 5.64496 19.7651 5.66741 19.8203 5.70433C19.8756 5.74124 19.921 5.79147 19.9523 5.85049C19.9837 5.90952 20.0001 5.97551 20 6.04252V17.5713L14.4 20L9.6 17.5713L4.5576 19.7579C4.49673 19.7843 4.43034 19.795 4.36437 19.7891C4.29841 19.7831 4.23494 19.7607 4.17967 19.7237C4.1244 19.6868 4.07904 19.6366 4.04769 19.5776C4.01633 19.5186 3.99994 19.4526 4 19.3855V7.85673L5.6 7.16294ZM15.3944 11.2917L12 14.7258L8.6056 11.2917C7.93439 10.6123 7.47731 9.74682 7.29217 8.80462C7.10703 7.86242 7.20213 6.88582 7.56546 5.99831C7.92878 5.1108 8.54401 4.35224 9.33335 3.81855C10.1227 3.28486 11.0507 3 12 3C12.9493 3 13.8773 3.28486 14.6667 3.81855C15.456 4.35224 16.0712 5.1108 16.4345 5.99831C16.7979 6.88582 16.893 7.86242 16.7078 8.80462C16.5227 9.74682 16.0656 10.6123 15.3944 11.2917ZM12 12.4364L14.2624 10.1461C14.71 9.69331 15.0149 9.11632 15.1384 8.48814C15.262 7.85996 15.1987 7.20882 14.9565 6.61705C14.7143 6.02529 14.3042 5.5195 13.7779 5.16363C13.2517 4.80777 12.6329 4.61783 12 4.61783C11.3671 4.61783 10.7483 4.80777 10.2221 5.16363C9.69582 5.5195 9.28567 6.02529 9.04349 6.61705C8.80132 7.20882 8.73801 7.85996 8.86156 8.48814C8.98511 9.11632 9.28998 9.69331 9.7376 10.1461L12 12.4364Z" fill="#5F727C"/>
</svg>
