<svg width="24" height="24" viewBox="0 0 24 24" fill="none" xmlns="http://www.w3.org/2000/svg">
<path d="M11.7237 9.28539C11.035 9.28539 10.4768 8.72716 10.4768 8.03845C10.4768 7.34973 11.035 6.7915 11.7237 6.7915C12.4125 6.7915 12.9707 7.34973 12.9707 8.03845C12.9707 8.72716 12.4125 9.28539 11.7237 9.28539ZM11.7237 8.78666C12.1369 8.78666 12.472 8.45161 12.472 8.03845C12.472 7.62529 12.1369 7.29024 11.7237 7.29024C11.3106 7.29024 10.9755 7.62528 10.9755 8.03845C10.9755 8.4516 11.3106 8.78666 11.7237 8.78666Z" fill="#5F727C" stroke="#5F727C" stroke-width="0.4"/>
<path d="M2.24694 18.5127C1.55823 18.5127 1 17.9544 1 17.2657C1 16.5772 1.55823 16.0188 2.24694 16.0188C2.93565 16.0188 3.49388 16.5772 3.49388 17.2657C3.49388 17.9544 2.93565 18.5127 2.24694 18.5127ZM2.24694 18.0139C2.66009 18.0139 2.99515 17.6791 2.99515 17.2657C2.99515 16.8526 2.6601 16.5177 2.24694 16.5177C1.83379 16.5177 1.49873 16.8526 1.49873 17.2657C1.49873 17.6791 1.83377 18.0139 2.24694 18.0139Z" fill="#5F727C" stroke="#5F727C" stroke-width="0.4"/>
<path d="M21.2005 18.5127C20.5118 18.5127 19.9536 17.9544 19.9536 17.2657C19.9536 16.5772 20.5118 16.0188 21.2005 16.0188C21.8892 16.0188 22.4475 16.5772 22.4475 17.2657C22.4475 17.9544 21.8892 18.5127 21.2005 18.5127ZM21.2005 18.0139C21.6137 18.0139 21.9487 17.6791 21.9487 17.2657C21.9487 16.8526 21.6137 16.5177 21.2005 16.5177C20.7874 16.5177 20.4523 16.8526 20.4523 17.2657C20.4523 17.6791 20.7874 18.0139 21.2005 18.0139Z" fill="#5F727C" stroke="#5F727C" stroke-width="0.4"/>
<path d="M10.4448 7.79089C10.5814 7.77332 10.7064 7.86969 10.7242 8.00625C10.7418 8.14298 10.6454 8.26788 10.5088 8.28562C8.366 8.56257 6.62972 9.3701 5.29127 10.7085C3.95005 12.0497 3.05782 13.8748 2.61663 16.1901C2.59088 16.3253 2.46024 16.4142 2.32507 16.3883C2.18973 16.3625 2.10101 16.2321 2.12676 16.0967C2.58568 13.6879 3.52226 11.7721 4.93865 10.3559C6.3578 8.93676 8.19619 8.08176 10.4448 7.79105L10.4448 7.79089Z" fill="#5F727C" stroke="#5F727C" stroke-width="0.4"/>
<path d="M13.0028 7.79089C12.866 7.77332 12.7411 7.86969 12.7234 8.00625C12.7058 8.14298 12.8022 8.26788 12.9387 8.28562C15.0816 8.56257 16.8178 9.3701 18.1563 10.7085C19.4975 12.0497 20.3897 13.8748 20.8309 16.1901C20.8567 16.3253 20.9871 16.4142 21.1225 16.3883C21.2578 16.3625 21.3465 16.2321 21.3208 16.0967C20.8619 13.6879 19.9253 11.7721 18.5089 10.3559C17.0898 8.93676 15.2514 8.08176 13.0028 7.79105L13.0028 7.79089Z" fill="#5F727C" stroke="#5F727C" stroke-width="0.4"/>
<path d="M8.94794 17.8495L11.7238 16.9112L14.4995 17.8495L11.7238 11.8446L8.94794 17.8495ZM11.9501 11.1455L15.1957 18.1671C15.2536 18.292 15.199 18.4402 15.0741 18.4979C15.016 18.5247 14.9501 18.5284 14.8895 18.5079L11.7238 17.4378L8.5581 18.5079C8.42763 18.552 8.28602 18.4819 8.24184 18.3515C8.22148 18.2909 8.22496 18.225 8.25175 18.1671L11.4975 11.1455C11.5552 11.0206 11.7035 10.9659 11.8284 11.0239C11.8821 11.0486 11.9253 11.0919 11.9501 11.1455L11.9501 11.1455Z" fill="#5F727C" stroke="#5F727C" stroke-width="0.4"/>
<path d="M12.7212 8.28781C12.5836 8.28781 12.4719 8.17613 12.4719 8.03835C12.4719 7.90057 12.5836 7.78906 12.7212 7.78906H20.2028C20.3406 7.78906 20.4523 7.90057 20.4523 8.03835C20.4523 8.17613 20.3406 8.28781 20.2028 8.28781H12.7212Z" fill="#5F727C" stroke="#5F727C" stroke-width="0.4"/>
<path d="M3.24445 8.28781C3.10668 8.28781 2.995 8.17613 2.995 8.03835C2.995 7.90057 3.10668 7.78906 3.24445 7.78906H10.7261C10.8637 7.78906 10.9754 7.90057 10.9754 8.03835C10.9754 8.17613 10.8637 8.28781 10.7261 8.28781H3.24445Z" fill="#5F727C" stroke="#5F727C" stroke-width="0.4"/>
<path d="M20.7017 7.53975V8.53721H21.6991V7.53975H20.7017ZM22.1979 7.04102V9.03616H20.2028V7.04102H22.1979Z" fill="#5F727C" stroke="#5F727C" stroke-width="0.4"/>
<path d="M1.74812 7.53975V8.53721H2.74558V7.53975H1.74812ZM3.24454 7.04102V9.03616H1.24939V7.04102H3.24454Z" fill="#5F727C" stroke="#5F727C" stroke-width="0.4"/>
</svg>
