<svg width="24" height="24" viewBox="0 0 24 24" fill="none" xmlns="http://www.w3.org/2000/svg">
<path d="M21.1306 15.3985H9.18534L11.316 10.0719L16.0307 11.5906L16.1666 11.1599V11.16C16.5775 9.8798 16.4936 8.49225 15.9312 7.27101C15.369 6.04993 14.3691 5.08389 13.1294 4.56402L13.5373 3.27195L12.6759 3L12.268 4.29207C10.9569 3.98834 9.57949 4.18772 8.40853 4.851C7.2374 5.51412 6.35785 6.59272 5.94407 7.87326L5.80809 8.30396L10.4547 9.79999L8.18792 15.3986H5.21864L2.79341 10.7747L2 11.1827L4.4934 15.9427V20H5.39998V16.3053H20.2239V20H21.1304L21.1306 15.3985ZM9.02667 5.5386C10.0349 5.02505 11.2007 4.91345 12.2881 5.22634C13.3756 5.5394 14.3037 6.25358 14.8849 7.22451C15.4659 8.19561 15.6566 9.35108 15.4185 10.4572L6.96394 7.73726C7.3725 6.78527 8.10265 6.00724 9.02663 5.53861L9.02667 5.5386Z" fill="#5F727C" stroke="#5F727C" stroke-width="0.5"/>
</svg>
