<svg width="24" height="24" viewBox="0 0 24 24" fill="none" xmlns="http://www.w3.org/2000/svg">
<path d="M12.1139 18.1231C8.78728 18.1231 6.07776 15.4136 6.07776 12.0869C6.07776 8.7603 8.78728 6.05078 12.1139 6.05078C15.4406 6.05078 18.1501 8.7603 18.1501 12.0869C18.1501 15.4134 15.4406 18.1231 12.1139 18.1231ZM12.1139 7.12388C9.37748 7.12388 7.15086 9.35055 7.15086 12.0869C7.15086 14.8232 9.37753 17.05 12.1139 17.05C14.8503 17.05 17.077 14.8233 17.077 12.0869C17.077 9.3507 14.8503 7.12388 12.1139 7.12388Z" fill="#5F727C" stroke="#5F727C" stroke-width="0.3"/>
<path d="M11.5773 2H12.6503V4.81693H11.5773V2Z" fill="#5F727C" stroke="#5F727C" stroke-width="0.3"/>
<path d="M18.8831 4.55493L19.6419 5.31376L17.6501 7.30561L16.8912 6.54677L18.8831 4.55493Z" fill="#5F727C" stroke="#5F727C" stroke-width="0.3"/>
<path d="M19.411 11.5508H22.2279V12.6238H19.411V11.5508Z" fill="#5F727C" stroke="#5F727C" stroke-width="0.3"/>
<path d="M17.6572 16.8635L19.649 18.8554L18.8902 19.6142L16.8983 17.6224L17.6572 16.8635Z" fill="#5F727C" stroke="#5F727C" stroke-width="0.3"/>
<path d="M11.5773 19.3843H12.6503V22.2012H11.5773V19.3843Z" fill="#5F727C" stroke="#5F727C" stroke-width="0.3"/>
<path d="M6.58168 16.8701L7.34052 17.6289L5.34868 19.6208L4.58984 18.862L6.58168 16.8701Z" fill="#5F727C" stroke="#5F727C" stroke-width="0.3"/>
<path d="M2 11.5508H4.81692V12.6238H2V11.5508Z" fill="#5F727C" stroke="#5F727C" stroke-width="0.3"/>
<path d="M5.34184 4.56152L7.33367 6.55337L6.57484 7.3122L4.58301 5.32036L5.34184 4.56152Z" fill="#5F727C" stroke="#5F727C" stroke-width="0.3"/>
</svg>
