<svg width="24" height="25" viewBox="0 0 24 25" fill="none" xmlns="http://www.w3.org/2000/svg">
<path d="M12 22.9168C6.477 22.9168 2 18.2533 2 12.5002C2 6.74704 6.477 2.0835 12 2.0835C17.523 2.0835 22 6.74704 22 12.5002C22 18.2533 17.523 22.9168 12 22.9168ZM8.89 13.7189L8.903 13.7116L9.773 16.7012C9.885 17.0252 10.039 17.0835 10.226 17.0564C10.414 17.0304 10.513 16.9252 10.636 16.8022L11.824 15.6064L14.374 17.5731C14.84 17.8408 15.175 17.7022 15.291 17.1231L16.948 8.97516C17.131 8.21683 16.811 7.91266 16.246 8.15433L6.513 12.071C5.849 12.3481 5.853 12.7356 6.393 12.9075L8.89 13.72V13.7189Z" fill="#2D4652"/>
</svg>
