<svg width="24" height="25" viewBox="0 0 24 25" fill="none" xmlns="http://www.w3.org/2000/svg">
<path d="M21.543 6.76859C22 8.62484 22 12.4998 22 12.4998C22 12.4998 22 16.3748 21.543 18.2311C21.289 19.2571 20.546 20.0644 19.605 20.3373C17.896 20.8332 12 20.8332 12 20.8332C12 20.8332 6.107 20.8332 4.395 20.3373C3.45 20.0603 2.708 19.254 2.457 18.2311C2 16.3748 2 12.4998 2 12.4998C2 12.4998 2 8.62484 2.457 6.76859C2.711 5.74255 3.454 4.93525 4.395 4.66234C6.107 4.1665 12 4.1665 12 4.1665C12 4.1665 17.896 4.1665 19.605 4.66234C20.55 4.93942 21.292 5.74567 21.543 6.76859ZM10 16.1457L16 12.4998L10 8.854V16.1457Z" fill="#2D4652"/>
</svg>
