<svg width="18" height="19" viewBox="0 0 18 19" fill="none" xmlns="http://www.w3.org/2000/svg">
<g clip-path="url(#clip0_130_3993)">
<path fill-rule="evenodd" clip-rule="evenodd" d="M10.6877 11.345C9.27211 12.8888 9.16902 14.811 9.0471 19.0242C12.7666 19.0242 15.3351 19.0093 16.6617 17.6511C17.9484 16.2509 17.9602 13.4107 17.9602 9.61347C13.9711 9.74953 12.1477 9.85097 10.6876 11.3453L10.6877 11.345ZM-0.0632385 9.61347C-0.0632385 13.411 -0.0491989 16.2508 1.23756 17.6511C2.5641 19.0093 5.13288 19.0242 8.85216 19.0242C8.72326 14.811 8.62716 12.8888 7.21152 11.345C5.74902 9.85071 3.9279 9.74191 -0.0634766 9.61321L-0.0632385 9.61347ZM8.85193 -0.000786563C5.13942 -0.000786563 2.56392 0.0115824 1.23732 1.37228C-0.049377 2.77252 -0.0634766 5.61017 -0.0634766 9.40991C3.9279 9.27385 5.74902 9.17241 7.21152 7.67566C8.62716 6.13438 8.73024 4.21208 8.85216 -0.000976562L8.85193 -0.000786563ZM10.6873 7.67566C9.27168 6.13438 9.16861 4.21208 9.04669 -0.000976562C12.7662 -0.000976562 15.3347 0.0113925 16.6613 1.37209C17.948 2.77233 17.9597 5.60998 17.9597 9.40972C13.9707 9.27366 12.1472 9.17222 10.6871 7.67547" fill="#2D4652"/>
<path fill-rule="evenodd" clip-rule="evenodd" d="M17.958 9.61375V9.41089C13.9689 9.27482 12.1455 9.17339 10.6854 7.67663C9.26974 6.13535 9.16666 4.21306 9.04474 0H8.85021C8.72131 4.21312 8.62521 6.13542 7.20957 7.67663C5.74707 9.17339 3.92595 9.28226 -0.0654297 9.41089V9.61375C3.92595 9.74982 5.74707 9.85125 7.20957 11.3455C8.62521 12.8893 8.72829 14.8116 8.85021 19.0247H9.04474C9.17365 14.8116 9.26974 12.8893 10.6854 11.3455C12.1455 9.85125 13.969 9.74245 17.958 9.61375Z" fill="white"/>
</g>
<defs>
<clipPath id="clip0_130_3993">
<rect width="18" height="19" fill="white"/>
</clipPath>
</defs>
</svg>
